# xmcd CD Database Entry
#
# Track frame offsets:
# 150
# 14987
# 27225
# 42572
# 64145
# 79877
# 102982
# 120825
# 138390
# 153432
# 175645
# 189272
# 208262
# 221767
# 239930
# 261090
#
# Disc length: 3834 seconds
#
# Revision: 2
# Processed by: cddbd v1.4b41PL1 Copyright (c) Steve Scherf et al.
# Submitted via: tcd 2.0b
#
DISCID=ed0ef810
DTITLE=ABBA - The Greatest Hits
DYEAR=1900
DGENRE=
TTITLE0=Ring Ring
TTITLE1=Waterloo
TTITLE2=S.O.S.
TTITLE3=Voulez-Vouz
TTITLE4=Mamma mia
TTITLE5=Chiquitita
TTITLE6=Knowing me, knowing you
TTITLE7=Take a Chance on me
TTITLE8=I do I do I do
TTITLE9=The Name of The Game
TTITLE10=Money, Money, Money
TTITLE11=Fernando
TTITLE12=Honey Honey
TTITLE13=Super Trouper
TTITLE14=The Winner tekes it all
TTITLE15=The Day Before You Came
EXTD=\t\t
EXTT0=
EXTT1=
EXTT2=
EXTT3=
EXTT4=
EXTT5=
EXTT6=
EXTT7=
EXTT8=
EXTT9=
EXTT10=
EXTT11=
EXTT12=
EXTT13=
EXTT14=
EXTT15=
PLAYORDER=
